<?xml version="1.0" encoding="utf-8" ?>
<svg xmlns="http://www.w3.org/2000/svg" xmlns:xlink="http://www.w3.org/1999/xlink" width="512" height="512">
	<path fill="#9000FF" d="M0 0L0 512L512 512L512 0L0 0Z"/>
	<path fill="#011627" d="M109.816 77.816L109.834 49.0665L105.025 48.8317C91.7488 47.619 78.7053 44.5695 66.732 38.59L62.2115 36.155C61.9532 36.014 61.5857 35.9427 61.3852 35.735L61.3195 79.715C61.3192 81.7835 61.413 83.8945 61.2035 85.9535C59.8182 99.5817 47.6685 110.319 34.0625 110.309C30.3475 110.306 26.7643 109.586 23.3259 108.165C9.91743 102.621 2.56132 86.2325 8.26953 72.6895C12.7858 61.9745 22.7147 55.1315 34.3237 55.1253C38.6957 55.123 42.8683 56.1365 46.7422 58.2218C47.0528 58.3888 48.4907 59.0947 48.6842 59.3062L48.7698 25.6617C48.7705 24.5431 48.684 23.3409 48.811 22.2326C49.1332 19.4146 51.1788 17.3455 53.981 16.8955C54.6403 16.8285 55.3345 16.8145 55.984 16.9664L56.0938 16.9935C57.9355 17.438 59.1977 18.9828 60.6505 20.0901C73.6562 30.0045 89.7352 34.637 105.828 36.23L110.783 36.5975C111.356 36.6315 111.927 36.7133 112.5 36.727L115.56 36.7398C118.527 36.745 121.407 37.797 122.197 41.0505L122.214 41.125C122.361 41.7272 122.307 42.3593 122.304 42.975L122.263 85.351C121.737 96.405 113.912 106.047 103.444 109.282C88.0127 114.052 71.402 102.729 70.151 86.5325C70.0122 84.736 70.1167 82.8572 70.117 81.0537L70.167 56.3345C70.5803 56.6125 71.1635 56.7245 71.6358 56.9213C74.9048 58.2825 78.8705 59.9532 82.3547 60.704L82.408 82.1642C82.401 83.3595 82.333 84.5948 82.4998 85.7812C83.4313 92.409 89.342 97.6215 96.0067 97.638C102.796 97.6545 108.786 92.4822 109.702 85.7375C109.85 84.6445 109.811 83.5327 109.813 82.4322L109.816 77.816ZM33.2848 67.7065C26.267 68.2638 20.064 73.5978 19.0837 80.6723C17.8008 89.9308 25.62 98.2348 34.8905 97.617C39.1265 97.1598 42.9348 95.4548 45.6572 92.0952C53.4838 82.4375 46.6675 67.7065 34.5135 67.6905C34.1178 67.69 33.6758 67.6587 33.2848 67.7065Z"/>
	<path fill="#011627" d="M146.184 50.184L146.166 78.9335L150.975 79.1683C164.251 80.381 177.295 83.4305 189.268 89.41L193.788 91.845C194.047 91.986 194.414 92.0573 194.615 92.265L194.68 48.285C194.681 46.2165 194.587 44.1055 194.796 42.0465C196.182 28.4183 208.332 17.6813 221.938 17.691C225.653 17.6937 229.236 18.4137 232.674 19.8353C246.083 25.3795 253.439 41.7675 247.73 55.3105C243.214 66.0255 233.285 72.8685 221.676 72.8748C217.304 72.877 213.132 71.8635 209.258 69.7782C208.947 69.6112 207.509 68.9052 207.316 68.6937L207.23 102.338C207.23 103.457 207.316 104.659 207.189 105.767C206.867 108.585 204.821 110.655 202.019 111.104C201.36 111.171 200.666 111.186 200.016 111.034L199.906 111.006C198.065 110.562 196.802 109.017 195.35 107.91C182.344 97.9955 166.265 93.363 150.172 91.77L145.217 91.4025C144.644 91.3685 144.073 91.2867 143.5 91.273L140.44 91.2602C137.473 91.255 134.593 90.203 133.803 86.9495L133.786 86.875C133.639 86.2728 133.693 85.6407 133.696 85.025L133.737 42.649C134.263 31.595 142.088 21.9532 152.556 18.7175C167.987 13.9475 184.598 25.2708 185.849 41.4675C185.988 43.264 185.883 45.1428 185.883 46.9463L185.833 71.6655C185.42 71.3875 184.837 71.2755 184.364 71.0787C181.095 69.7175 177.13 68.0468 173.645 67.296L173.592 45.8358C173.599 44.6405 173.667 43.4052 173.5 42.2188C172.569 35.591 166.658 30.3785 159.993 30.362C153.204 30.3455 147.214 35.5178 146.298 42.2625C146.149 43.3555 146.189 44.4673 146.187 45.5678L146.184 50.184ZM222.715 60.2935C229.733 59.7362 235.936 54.4022 236.916 47.3277C238.199 38.0692 230.38 29.7652 221.109 30.383C216.874 30.8402 213.065 32.5452 210.343 35.9048C202.516 45.5625 209.332 60.2935 221.487 60.3095C221.882 60.31 222.324 60.3413 222.715 60.2935Z"/>
	<path fill="#011627" d="M365.816 77.816L365.834 49.0665L361.025 48.8317C347.749 47.619 334.705 44.5695 322.732 38.59L318.212 36.155C317.953 36.014 317.586 35.9427 317.385 35.735L317.32 79.715C317.319 81.7835 317.413 83.8945 317.204 85.9535C315.818 99.5817 303.668 110.319 290.062 110.309C286.348 110.306 282.764 109.586 279.326 108.165C265.917 102.621 258.561 86.2325 264.27 72.6895C268.786 61.9745 278.715 55.1315 290.324 55.1253C294.696 55.123 298.868 56.1365 302.742 58.2218C303.053 58.3888 304.491 59.0947 304.684 59.3062L304.77 25.6617C304.77 24.5431 304.684 23.3409 304.811 22.2326C305.133 19.4146 307.179 17.3455 309.981 16.8955C310.64 16.8285 311.334 16.8145 311.984 16.9664L312.094 16.9935C313.935 17.438 315.198 18.9828 316.651 20.0901C329.656 30.0045 345.735 34.637 361.828 36.23L366.783 36.5975C367.356 36.6315 367.927 36.7133 368.5 36.727L371.56 36.7398C374.527 36.745 377.407 37.797 378.197 41.0505L378.214 41.125C378.361 41.7272 378.307 42.3593 378.304 42.975L378.263 85.351C377.737 96.405 369.912 106.047 359.444 109.282C344.013 114.052 327.402 102.729 326.151 86.5325C326.012 84.736 326.117 82.8572 326.117 81.0537L326.167 56.3345C326.58 56.6125 327.163 56.7245 327.636 56.9213C330.905 58.2825 334.87 59.9532 338.355 60.704L338.408 82.1642C338.401 83.3595 338.333 84.5948 338.5 85.7812C339.431 92.409 345.342 97.6215 352.007 97.638C358.796 97.6545 364.786 92.4822 365.702 85.7375C365.85 84.6445 365.811 83.5327 365.813 82.4322L365.816 77.816ZM289.285 67.7065C282.267 68.2638 276.064 73.5978 275.084 80.6723C273.801 89.9308 281.62 98.2348 290.89 97.617C295.127 97.1598 298.935 95.4548 301.657 92.0952C309.484 82.4375 302.668 67.7065 290.514 67.6905C290.118 67.69 289.676 67.6587 289.285 67.7065Z"/>
	<path fill="#011627" d="M402.184 50.184L402.166 78.9335L406.975 79.1683C420.251 80.381 433.295 83.4305 445.268 89.41L449.788 91.845C450.047 91.986 450.414 92.0573 450.615 92.265L450.68 48.285C450.681 46.2165 450.587 44.1055 450.796 42.0465C452.182 28.4183 464.332 17.6813 477.938 17.691C481.653 17.6937 485.236 18.4137 488.674 19.8353C502.083 25.3795 509.439 41.7675 503.73 55.3105C499.214 66.0255 489.285 72.8685 477.676 72.8748C473.304 72.877 469.132 71.8635 465.258 69.7782C464.947 69.6112 463.509 68.9052 463.316 68.6937L463.23 102.338C463.23 103.457 463.316 104.659 463.189 105.767C462.867 108.585 460.821 110.655 458.019 111.104C457.36 111.171 456.666 111.186 456.016 111.034L455.906 111.006C454.065 110.562 452.802 109.017 451.35 107.91C438.344 97.9955 422.265 93.363 406.172 91.77L401.217 91.4025C400.644 91.3685 400.073 91.2867 399.5 91.273L396.44 91.2602C393.473 91.255 390.593 90.203 389.803 86.9495L389.786 86.875C389.639 86.2728 389.693 85.6407 389.696 85.025L389.737 42.649C390.264 31.595 398.088 21.9532 408.556 18.7175C423.987 13.9475 440.598 25.2708 441.849 41.4675C441.988 43.264 441.883 45.1428 441.883 46.9463L441.833 71.6655C441.42 71.3875 440.837 71.2755 440.364 71.0787C437.095 69.7175 433.13 68.0468 429.645 67.296L429.592 45.8358C429.599 44.6405 429.667 43.4052 429.5 42.2188C428.569 35.591 422.658 30.3785 415.993 30.362C409.204 30.3455 403.214 35.5178 402.298 42.2625C402.149 43.3555 402.189 44.4673 402.187 45.5678L402.184 50.184ZM478.715 60.2935C485.733 59.7362 491.936 54.4022 492.916 47.3277C494.199 38.0692 486.38 29.7652 477.11 30.383C472.874 30.8402 469.065 32.5452 466.343 35.9048C458.516 45.5625 465.332 60.2935 477.486 60.3095C477.882 60.31 478.324 60.3413 478.715 60.2935Z"/>
	<path fill="#011627" d="M-45.8162 178.184L-45.8337 206.933L-41.0247 207.168C-27.7488 208.381 -14.7053 211.43 -2.732 217.41L1.7885 219.845C2.0468 219.986 2.4143 220.057 2.6148 220.265L2.6805 176.285C2.6808 174.216 2.587 172.106 2.7965 170.047C4.1817 156.418 16.3315 145.681 29.9375 145.691C33.6525 145.694 37.236 146.414 40.674 147.835C54.083 153.38 61.439 169.767 55.73 183.31C51.214 194.025 41.285 200.868 29.6763 200.875C25.3042 200.877 21.1317 199.863 17.2578 197.778C16.9472 197.611 15.5093 196.905 15.3158 196.694L15.2302 230.338C15.2295 231.457 15.316 232.659 15.189 233.767C14.8667 236.585 12.8212 238.655 10.019 239.104C9.3597 239.171 8.6655 239.186 8.016 239.034L7.9062 239.006C6.0645 238.562 4.8023 237.017 3.3495 235.91C-9.6562 225.995 -25.7352 221.363 -41.8277 219.77L-46.7832 219.403C-47.3555 219.368 -47.9273 219.287 -48.5 219.273L-51.5602 219.26C-54.5273 219.255 -57.4068 218.203 -58.1972 214.95L-58.2142 214.875C-58.3605 214.273 -58.3072 213.641 -58.3042 213.025L-58.2632 170.649C-57.7365 159.595 -49.912 149.953 -39.444 146.718C-24.0127 141.947 -7.402 153.271 -6.151 169.468C-6.0122 171.264 -6.1167 173.143 -6.117 174.946L-6.167 199.666C-6.5803 199.387 -7.1635 199.275 -7.6358 199.079C-10.9048 197.718 -14.8705 196.047 -18.3547 195.296L-18.408 173.836C-18.401 172.641 -18.333 171.405 -18.4998 170.219C-19.4313 163.591 -25.342 158.379 -32.0067 158.362C-38.7957 158.346 -44.786 163.518 -45.7023 170.262C-45.8505 171.356 -45.8113 172.467 -45.8127 173.568L-45.8162 178.184ZM30.7152 188.293C37.733 187.736 43.936 182.402 44.916 175.328C46.199 166.069 38.38 157.765 29.1095 158.383C24.8735 158.84 21.0652 160.545 18.3427 163.905C10.5162 173.562 17.3325 188.293 29.4865 188.31C29.8822 188.31 30.3243 188.341 30.7152 188.293Z"/>
	<path fill="#011627" d="M173.816 205.816L173.834 177.066L169.025 176.832C155.749 175.619 142.705 172.57 130.732 166.59L126.212 164.155C125.953 164.014 125.586 163.943 125.385 163.735L125.32 207.715C125.319 209.784 125.413 211.894 125.203 213.954C123.818 227.582 111.668 238.319 98.0625 238.309C94.3475 238.306 90.7643 237.586 87.3259 236.165C73.9174 230.621 66.5613 214.233 72.2695 200.69C76.7858 189.975 86.7147 183.132 98.3237 183.125C102.696 183.123 106.868 184.137 110.742 186.222C111.053 186.389 112.491 187.095 112.684 187.306L112.77 153.662C112.77 152.543 112.684 151.341 112.811 150.233C113.133 147.415 115.179 145.346 117.981 144.895C118.64 144.828 119.334 144.815 119.984 144.966L120.094 144.994C121.935 145.438 123.198 146.983 124.65 148.09C137.656 158.005 153.735 162.637 169.828 164.23L174.783 164.597C175.356 164.632 175.927 164.713 176.5 164.727L179.56 164.74C182.527 164.745 185.407 165.797 186.197 169.05L186.214 169.125C186.361 169.727 186.307 170.359 186.304 170.975L186.263 213.351C185.737 224.405 177.912 234.047 167.444 237.282C152.013 242.052 135.402 230.729 134.151 214.532C134.012 212.736 134.117 210.857 134.117 209.054L134.167 184.334C134.58 184.613 135.163 184.725 135.636 184.921C138.905 186.282 142.87 187.953 146.355 188.704L146.408 210.164C146.401 211.359 146.333 212.595 146.5 213.781C147.431 220.409 153.342 225.621 160.007 225.638C166.796 225.654 172.786 220.482 173.702 213.738C173.85 212.644 173.811 211.533 173.813 210.432L173.816 205.816ZM97.2848 195.707C90.267 196.264 84.064 201.598 83.0837 208.672C81.8008 217.931 89.62 226.235 98.8905 225.617C103.126 225.16 106.935 223.455 109.657 220.095C117.484 210.438 110.667 195.707 98.5135 195.69C98.1178 195.69 97.6758 195.659 97.2848 195.707Z"/>
	<path fill="#011627" d="M210.184 178.184L210.166 206.933L214.975 207.168C228.251 208.381 241.295 211.43 253.268 217.41L257.788 219.845C258.047 219.986 258.414 220.057 258.615 220.265L258.68 176.285C258.681 174.216 258.587 172.106 258.796 170.047C260.182 156.418 272.332 145.681 285.938 145.691C289.653 145.694 293.236 146.414 296.674 147.835C310.083 153.38 317.439 169.767 311.73 183.31C307.214 194.025 297.285 200.868 285.676 200.875C281.304 200.877 277.132 199.863 273.258 197.778C272.947 197.611 271.509 196.905 271.316 196.694L271.23 230.338C271.23 231.457 271.316 232.659 271.189 233.767C270.867 236.585 268.821 238.655 266.019 239.104C265.36 239.171 264.666 239.186 264.016 239.034L263.906 239.006C262.065 238.562 260.802 237.017 259.35 235.91C246.344 225.995 230.265 221.363 214.172 219.77L209.217 219.403C208.644 219.368 208.073 219.287 207.5 219.273L204.44 219.26C201.473 219.255 198.593 218.203 197.803 214.95L197.786 214.875C197.639 214.273 197.693 213.641 197.696 213.025L197.737 170.649C198.263 159.595 206.088 149.953 216.556 146.718C231.987 141.947 248.598 153.271 249.849 169.468C249.988 171.264 249.883 173.143 249.883 174.946L249.833 199.666C249.42 199.387 248.837 199.275 248.364 199.079C245.095 197.718 241.13 196.047 237.645 195.296L237.592 173.836C237.599 172.641 237.667 171.405 237.5 170.219C236.569 163.591 230.658 158.379 223.993 158.362C217.204 158.346 211.214 163.518 210.298 170.262C210.149 171.356 210.189 172.467 210.187 173.568L210.184 178.184ZM286.715 188.293C293.733 187.736 299.936 182.402 300.916 175.328C302.199 166.069 294.38 157.765 285.11 158.383C280.874 158.84 277.065 160.545 274.343 163.905C266.516 173.562 273.332 188.293 285.486 188.31C285.882 188.31 286.324 188.341 286.715 188.293Z"/>
	<path fill="#011627" d="M429.816 205.816L429.834 177.066L425.025 176.832C411.749 175.619 398.705 172.57 386.732 166.59L382.212 164.155C381.953 164.014 381.586 163.943 381.385 163.735L381.32 207.715C381.319 209.784 381.413 211.894 381.204 213.954C379.818 227.582 367.668 238.319 354.062 238.309C350.348 238.306 346.764 237.586 343.326 236.165C329.917 230.621 322.561 214.233 328.27 200.69C332.786 189.975 342.715 183.132 354.324 183.125C358.696 183.123 362.868 184.137 366.742 186.222C367.053 186.389 368.491 187.095 368.684 187.306L368.77 153.662C368.77 152.543 368.684 151.341 368.811 150.233C369.133 147.415 371.179 145.346 373.981 144.895C374.64 144.828 375.334 144.815 375.984 144.966L376.094 144.994C377.935 145.438 379.198 146.983 380.651 148.09C393.656 158.005 409.735 162.637 425.828 164.23L430.783 164.597C431.356 164.632 431.927 164.713 432.5 164.727L435.56 164.74C438.527 164.745 441.407 165.797 442.197 169.05L442.214 169.125C442.361 169.727 442.307 170.359 442.304 170.975L442.263 213.351C441.737 224.405 433.912 234.047 423.444 237.282C408.013 242.052 391.402 230.729 390.151 214.532C390.012 212.736 390.117 210.857 390.117 209.054L390.167 184.334C390.58 184.613 391.163 184.725 391.636 184.921C394.905 186.282 398.87 187.953 402.355 188.704L402.408 210.164C402.401 211.359 402.333 212.595 402.5 213.781C403.431 220.409 409.342 225.621 416.007 225.638C422.796 225.654 428.786 220.482 429.702 213.738C429.85 212.644 429.811 211.533 429.813 210.432L429.816 205.816ZM353.285 195.707C346.267 196.264 340.064 201.598 339.084 208.672C337.801 217.931 345.62 226.235 354.89 225.617C359.127 225.16 362.935 223.455 365.657 220.095C373.484 210.438 366.668 195.707 354.514 195.69C354.118 195.69 353.676 195.659 353.285 195.707Z"/>
	<path fill="#011627" d="M466.184 178.184L466.166 206.933L470.975 207.168C484.251 208.381 497.295 211.43 509.268 217.41L513.788 219.845C514.047 219.986 514.414 220.057 514.615 220.265L514.68 176.285C514.681 174.216 514.587 172.106 514.797 170.047C516.182 156.418 528.332 145.681 541.938 145.691C545.653 145.694 549.236 146.414 552.674 147.835C566.083 153.38 573.439 169.767 567.73 183.31C563.214 194.025 553.285 200.868 541.676 200.875C537.304 200.877 533.132 199.863 529.258 197.778C528.947 197.611 527.509 196.905 527.316 196.694L527.23 230.338C527.23 231.457 527.316 232.659 527.189 233.767C526.867 236.585 524.821 238.655 522.019 239.104C521.36 239.171 520.665 239.186 520.016 239.034L519.906 239.006C518.064 238.562 516.802 237.017 515.35 235.91C502.344 225.995 486.265 221.363 470.172 219.77L465.217 219.403C464.644 219.368 464.073 219.287 463.5 219.273L460.44 219.26C457.473 219.255 454.593 218.203 453.803 214.95L453.786 214.875C453.639 214.273 453.693 213.641 453.696 213.025L453.737 170.649C454.264 159.595 462.088 149.953 472.556 146.718C487.987 141.947 504.598 153.271 505.849 169.468C505.988 171.264 505.883 173.143 505.883 174.946L505.833 199.666C505.42 199.387 504.837 199.275 504.364 199.079C501.095 197.718 497.13 196.047 493.645 195.296L493.592 173.836C493.599 172.641 493.667 171.405 493.5 170.219C492.569 163.591 486.658 158.379 479.993 158.362C473.204 158.346 467.214 163.518 466.298 170.262C466.149 171.356 466.189 172.467 466.187 173.568L466.184 178.184ZM542.715 188.293C549.733 187.736 555.936 182.402 556.916 175.328C558.199 166.069 550.38 157.765 541.11 158.383C536.874 158.84 533.065 160.545 530.343 163.905C522.516 173.562 529.332 188.293 541.486 188.31C541.882 188.31 542.324 188.341 542.715 188.293Z"/>
	<path fill="#011627" d="M109.816 333.816L109.834 305.067L105.025 304.832C91.7488 303.619 78.7053 300.57 66.732 294.59L62.2115 292.155C61.9532 292.014 61.5857 291.943 61.3852 291.735L61.3195 335.715C61.3192 337.784 61.413 339.894 61.2035 341.954C59.8182 355.582 47.6685 366.319 34.0625 366.309C30.3475 366.306 26.7643 365.586 23.3259 364.165C9.91743 358.621 2.56132 342.233 8.26953 328.69C12.7858 317.974 22.7147 311.132 34.3237 311.125C38.6957 311.123 42.8683 312.137 46.7422 314.222C47.0528 314.389 48.4907 315.095 48.6842 315.306L48.7698 281.662C48.7705 280.543 48.684 279.341 48.811 278.233C49.1332 275.415 51.1788 273.346 53.981 272.895C54.6403 272.829 55.3345 272.815 55.984 272.966L56.0938 272.993C57.9355 273.438 59.1977 274.983 60.6505 276.09C73.6562 286.005 89.7352 290.637 105.828 292.23L110.783 292.597C111.356 292.632 111.927 292.713 112.5 292.727L115.56 292.74C118.527 292.745 121.407 293.797 122.197 297.05L122.214 297.125C122.361 297.727 122.307 298.359 122.304 298.975L122.263 341.351C121.737 352.405 113.912 362.047 103.444 365.282C88.0127 370.052 71.402 358.729 70.151 342.533C70.0122 340.736 70.1167 338.857 70.117 337.054L70.167 312.334C70.5803 312.613 71.1635 312.724 71.6358 312.921C74.9048 314.283 78.8705 315.953 82.3547 316.704L82.408 338.164C82.401 339.36 82.333 340.595 82.4998 341.781C83.4313 348.409 89.342 353.621 96.0067 353.638C102.796 353.654 108.786 348.482 109.702 341.738C109.85 340.644 109.811 339.533 109.813 338.432L109.816 333.816ZM33.2848 323.707C26.267 324.264 20.064 329.598 19.0837 336.672C17.8008 345.931 25.62 354.235 34.8905 353.617C39.1265 353.16 42.9348 351.455 45.6572 348.095C53.4838 338.438 46.6675 323.707 34.5135 323.69C34.1178 323.69 33.6758 323.659 33.2848 323.707Z"/>
	<path fill="#011627" d="M146.184 306.184L146.166 334.933L150.975 335.168C164.251 336.381 177.295 339.43 189.268 345.41L193.788 347.845C194.047 347.986 194.414 348.057 194.615 348.265L194.68 304.285C194.681 302.216 194.587 300.106 194.796 298.046C196.182 284.418 208.332 273.681 221.938 273.691C225.653 273.694 229.236 274.414 232.674 275.835C246.083 281.38 253.439 297.767 247.73 311.31C243.214 322.025 233.285 328.868 221.676 328.875C217.304 328.877 213.132 327.863 209.258 325.778C208.947 325.611 207.509 324.905 207.316 324.694L207.23 358.338C207.23 359.457 207.316 360.659 207.189 361.767C206.867 364.585 204.821 366.655 202.019 367.104C201.36 367.171 200.666 367.186 200.016 367.034L199.906 367.006C198.065 366.562 196.802 365.017 195.35 363.91C182.344 353.995 166.265 349.363 150.172 347.77L145.217 347.403C144.644 347.368 144.073 347.287 143.5 347.273L140.44 347.26C137.473 347.255 134.593 346.203 133.803 342.95L133.786 342.875C133.639 342.273 133.693 341.641 133.696 341.025L133.737 298.649C134.263 287.595 142.088 277.953 152.556 274.717C167.987 269.947 184.598 281.271 185.849 297.467C185.988 299.264 185.883 301.143 185.883 302.946L185.833 327.666C185.42 327.387 184.837 327.275 184.364 327.079C181.095 325.717 177.13 324.047 173.645 323.296L173.592 301.836C173.599 300.64 173.667 299.405 173.5 298.219C172.569 291.591 166.658 286.378 159.993 286.362C153.204 286.346 147.214 291.518 146.298 298.262C146.149 299.356 146.189 300.467 146.187 301.568L146.184 306.184ZM222.715 316.293C229.733 315.736 235.936 310.402 236.916 303.328C238.199 294.069 230.38 285.765 221.109 286.383C216.874 286.84 213.065 288.545 210.343 291.905C202.516 301.562 209.332 316.293 221.487 316.31C221.882 316.31 222.324 316.341 222.715 316.293Z"/>
	<path fill="#011627" d="M365.816 333.816L365.834 305.067L361.025 304.832C347.749 303.619 334.705 300.57 322.732 294.59L318.212 292.155C317.953 292.014 317.586 291.943 317.385 291.735L317.32 335.715C317.319 337.784 317.413 339.894 317.204 341.954C315.818 355.582 303.668 366.319 290.062 366.309C286.348 366.306 282.764 365.586 279.326 364.165C265.917 358.621 258.561 342.233 264.27 328.69C268.786 317.974 278.715 311.132 290.324 311.125C294.696 311.123 298.868 312.137 302.742 314.222C303.053 314.389 304.491 315.095 304.684 315.306L304.77 281.662C304.77 280.543 304.684 279.341 304.811 278.233C305.133 275.415 307.179 273.346 309.981 272.895C310.64 272.829 311.334 272.815 311.984 272.966L312.094 272.993C313.935 273.438 315.198 274.983 316.651 276.09C329.656 286.005 345.735 290.637 361.828 292.23L366.783 292.597C367.356 292.632 367.927 292.713 368.5 292.727L371.56 292.74C374.527 292.745 377.407 293.797 378.197 297.05L378.214 297.125C378.361 297.727 378.307 298.359 378.304 298.975L378.263 341.351C377.737 352.405 369.912 362.047 359.444 365.282C344.013 370.052 327.402 358.729 326.151 342.533C326.012 340.736 326.117 338.857 326.117 337.054L326.167 312.334C326.58 312.613 327.163 312.724 327.636 312.921C330.905 314.283 334.87 315.953 338.355 316.704L338.408 338.164C338.401 339.36 338.333 340.595 338.5 341.781C339.431 348.409 345.342 353.621 352.007 353.638C358.796 353.654 364.786 348.482 365.702 341.738C365.85 340.644 365.811 339.533 365.813 338.432L365.816 333.816ZM289.285 323.707C282.267 324.264 276.064 329.598 275.084 336.672C273.801 345.931 281.62 354.235 290.89 353.617C295.127 353.16 298.935 351.455 301.657 348.095C309.484 338.438 302.668 323.707 290.514 323.69C290.118 323.69 289.676 323.659 289.285 323.707Z"/>
	<path fill="#011627" d="M402.184 306.184L402.166 334.933L406.975 335.168C420.251 336.381 433.295 339.43 445.268 345.41L449.788 347.845C450.047 347.986 450.414 348.057 450.615 348.265L450.68 304.285C450.681 302.216 450.587 300.106 450.796 298.046C452.182 284.418 464.332 273.681 477.938 273.691C481.653 273.694 485.236 274.414 488.674 275.835C502.083 281.38 509.439 297.767 503.73 311.31C499.214 322.025 489.285 328.868 477.676 328.875C473.304 328.877 469.132 327.863 465.258 325.778C464.947 325.611 463.509 324.905 463.316 324.694L463.23 358.338C463.23 359.457 463.316 360.659 463.189 361.767C462.867 364.585 460.821 366.655 458.019 367.104C457.36 367.171 456.666 367.186 456.016 367.034L455.906 367.006C454.065 366.562 452.802 365.017 451.35 363.91C438.344 353.995 422.265 349.363 406.172 347.77L401.217 347.403C400.644 347.368 400.073 347.287 399.5 347.273L396.44 347.26C393.473 347.255 390.593 346.203 389.803 342.95L389.786 342.875C389.639 342.273 389.693 341.641 389.696 341.025L389.737 298.649C390.264 287.595 398.088 277.953 408.556 274.717C423.987 269.947 440.598 281.271 441.849 297.467C441.988 299.264 441.883 301.143 441.883 302.946L441.833 327.666C441.42 327.387 440.837 327.275 440.364 327.079C437.095 325.717 433.13 324.047 429.645 323.296L429.592 301.836C429.599 300.64 429.667 299.405 429.5 298.219C428.569 291.591 422.658 286.378 415.993 286.362C409.204 286.346 403.214 291.518 402.298 298.262C402.149 299.356 402.189 300.467 402.187 301.568L402.184 306.184ZM478.715 316.293C485.733 315.736 491.936 310.402 492.916 303.328C494.199 294.069 486.38 285.765 477.11 286.383C472.874 286.84 469.065 288.545 466.343 291.905C458.516 301.562 465.332 316.293 477.486 316.31C477.882 316.31 478.324 316.341 478.715 316.293Z"/>
	<path fill="#011627" d="M-45.8162 434.184L-45.8337 462.933L-41.0247 463.168C-27.7488 464.381 -14.7053 467.43 -2.732 473.41L1.7885 475.845C2.0468 475.986 2.4143 476.057 2.6148 476.265L2.6805 432.285C2.6808 430.216 2.587 428.106 2.7965 426.046C4.1817 412.418 16.3315 401.681 29.9375 401.691C33.6525 401.694 37.236 402.414 40.674 403.835C54.083 409.38 61.439 425.767 55.73 439.31C51.214 450.025 41.285 456.868 29.6763 456.875C25.3042 456.877 21.1317 455.863 17.2578 453.778C16.9472 453.611 15.5093 452.905 15.3158 452.694L15.2302 486.338C15.2295 487.457 15.316 488.659 15.189 489.767C14.8667 492.585 12.8212 494.655 10.019 495.104C9.3597 495.171 8.6655 495.186 8.016 495.034L7.9062 495.006C6.0645 494.562 4.8023 493.017 3.3495 491.91C-9.6562 481.995 -25.7352 477.363 -41.8277 475.77L-46.7832 475.403C-47.3555 475.368 -47.9273 475.287 -48.5 475.273L-51.5602 475.26C-54.5273 475.255 -57.4068 474.203 -58.1972 470.95L-58.2142 470.875C-58.3605 470.273 -58.3072 469.641 -58.3042 469.025L-58.2632 426.649C-57.7365 415.595 -49.912 405.953 -39.444 402.717C-24.0127 397.947 -7.402 409.271 -6.151 425.467C-6.0122 427.264 -6.1167 429.143 -6.117 430.946L-6.167 455.666C-6.5803 455.387 -7.1635 455.275 -7.6358 455.079C-10.9048 453.717 -14.8705 452.047 -18.3547 451.296L-18.408 429.836C-18.401 428.64 -18.333 427.405 -18.4998 426.219C-19.4313 419.591 -25.342 414.378 -32.0067 414.362C-38.7957 414.346 -44.786 419.518 -45.7023 426.262C-45.8505 427.356 -45.8113 428.467 -45.8127 429.568L-45.8162 434.184ZM30.7152 444.293C37.733 443.736 43.936 438.402 44.916 431.328C46.199 422.069 38.38 413.765 29.1095 414.383C24.8735 414.84 21.0652 416.545 18.3427 419.905C10.5162 429.562 17.3325 444.293 29.4865 444.31C29.8822 444.31 30.3243 444.341 30.7152 444.293Z"/>
	<path fill="#011627" d="M173.816 461.816L173.834 433.067L169.025 432.832C155.749 431.619 142.705 428.57 130.732 422.59L126.212 420.155C125.953 420.014 125.586 419.943 125.385 419.735L125.32 463.715C125.319 465.784 125.413 467.894 125.203 469.954C123.818 483.582 111.668 494.319 98.0625 494.309C94.3475 494.306 90.7643 493.586 87.3259 492.165C73.9174 486.621 66.5613 470.233 72.2695 456.69C76.7858 445.974 86.7147 439.132 98.3237 439.125C102.696 439.123 106.868 440.137 110.742 442.222C111.053 442.389 112.491 443.095 112.684 443.306L112.77 409.662C112.77 408.543 112.684 407.341 112.811 406.233C113.133 403.415 115.179 401.346 117.981 400.895C118.64 400.829 119.334 400.815 119.984 400.966L120.094 400.993C121.935 401.438 123.198 402.983 124.65 404.09C137.656 414.005 153.735 418.637 169.828 420.23L174.783 420.597C175.356 420.632 175.927 420.713 176.5 420.727L179.56 420.74C182.527 420.745 185.407 421.797 186.197 425.05L186.214 425.125C186.361 425.727 186.307 426.359 186.304 426.975L186.263 469.351C185.737 480.405 177.912 490.047 167.444 493.282C152.013 498.052 135.402 486.729 134.151 470.533C134.012 468.736 134.117 466.857 134.117 465.054L134.167 440.334C134.58 440.613 135.163 440.724 135.636 440.921C138.905 442.283 142.87 443.953 146.355 444.704L146.408 466.164C146.401 467.36 146.333 468.595 146.5 469.781C147.431 476.409 153.342 481.621 160.007 481.638C166.796 481.654 172.786 476.482 173.702 469.738C173.85 468.644 173.811 467.533 173.813 466.432L173.816 461.816ZM97.2848 451.707C90.267 452.264 84.064 457.598 83.0837 464.672C81.8008 473.931 89.62 482.235 98.8905 481.617C103.126 481.16 106.935 479.455 109.657 476.095C117.484 466.438 110.667 451.707 98.5135 451.69C98.1178 451.69 97.6758 451.659 97.2848 451.707Z"/>
	<path fill="#011627" d="M210.184 434.184L210.166 462.933L214.975 463.168C228.251 464.381 241.295 467.43 253.268 473.41L257.788 475.845C258.047 475.986 258.414 476.057 258.615 476.265L258.68 432.285C258.681 430.216 258.587 428.106 258.796 426.046C260.182 412.418 272.332 401.681 285.938 401.691C289.653 401.694 293.236 402.414 296.674 403.835C310.083 409.38 317.439 425.767 311.73 439.31C307.214 450.025 297.285 456.868 285.676 456.875C281.304 456.877 277.132 455.863 273.258 453.778C272.947 453.611 271.509 452.905 271.316 452.694L271.23 486.338C271.23 487.457 271.316 488.659 271.189 489.767C270.867 492.585 268.821 494.655 266.019 495.104C265.36 495.171 264.666 495.186 264.016 495.034L263.906 495.006C262.065 494.562 260.802 493.017 259.35 491.91C246.344 481.995 230.265 477.363 214.172 475.77L209.217 475.403C208.644 475.368 208.073 475.287 207.5 475.273L204.44 475.26C201.473 475.255 198.593 474.203 197.803 470.95L197.786 470.875C197.639 470.273 197.693 469.641 197.696 469.025L197.737 426.649C198.263 415.595 206.088 405.953 216.556 402.717C231.987 397.947 248.598 409.271 249.849 425.467C249.988 427.264 249.883 429.143 249.883 430.946L249.833 455.666C249.42 455.387 248.837 455.275 248.364 455.079C245.095 453.717 241.13 452.047 237.645 451.296L237.592 429.836C237.599 428.64 237.667 427.405 237.5 426.219C236.569 419.591 230.658 414.378 223.993 414.362C217.204 414.346 211.214 419.518 210.298 426.262C210.149 427.356 210.189 428.467 210.187 429.568L210.184 434.184ZM286.715 444.293C293.733 443.736 299.936 438.402 300.916 431.328C302.199 422.069 294.38 413.765 285.11 414.383C280.874 414.84 277.065 416.545 274.343 419.905C266.516 429.562 273.332 444.293 285.486 444.31C285.882 444.31 286.324 444.341 286.715 444.293Z"/>
	<path fill="#011627" d="M429.816 461.816L429.834 433.067L425.025 432.832C411.749 431.619 398.705 428.57 386.732 422.59L382.212 420.155C381.953 420.014 381.586 419.943 381.385 419.735L381.32 463.715C381.319 465.784 381.413 467.894 381.204 469.954C379.818 483.582 367.668 494.319 354.062 494.309C350.348 494.306 346.764 493.586 343.326 492.165C329.917 486.621 322.561 470.233 328.27 456.69C332.786 445.974 342.715 439.132 354.324 439.125C358.696 439.123 362.868 440.137 366.742 442.222C367.053 442.389 368.491 443.095 368.684 443.306L368.77 409.662C368.77 408.543 368.684 407.341 368.811 406.233C369.133 403.415 371.179 401.346 373.981 400.895C374.64 400.829 375.334 400.815 375.984 400.966L376.094 400.993C377.935 401.438 379.198 402.983 380.651 404.09C393.656 414.005 409.735 418.637 425.828 420.23L430.783 420.597C431.356 420.632 431.927 420.713 432.5 420.727L435.56 420.74C438.527 420.745 441.407 421.797 442.197 425.05L442.214 425.125C442.361 425.727 442.307 426.359 442.304 426.975L442.263 469.351C441.737 480.405 433.912 490.047 423.444 493.282C408.013 498.052 391.402 486.729 390.151 470.533C390.012 468.736 390.117 466.857 390.117 465.054L390.167 440.334C390.58 440.613 391.163 440.724 391.636 440.921C394.905 442.283 398.87 443.953 402.355 444.704L402.408 466.164C402.401 467.36 402.333 468.595 402.5 469.781C403.431 476.409 409.342 481.621 416.007 481.638C422.796 481.654 428.786 476.482 429.702 469.738C429.85 468.644 429.811 467.533 429.813 466.432L429.816 461.816ZM353.285 451.707C346.267 452.264 340.064 457.598 339.084 464.672C337.801 473.931 345.62 482.235 354.89 481.617C359.127 481.16 362.935 479.455 365.657 476.095C373.484 466.438 366.668 451.707 354.514 451.69C354.118 451.69 353.676 451.659 353.285 451.707Z"/>
	<path fill="#011627" d="M466.184 434.184L466.166 462.933L470.975 463.168C484.251 464.381 497.295 467.43 509.268 473.41L513.788 475.845C514.047 475.986 514.414 476.057 514.615 476.265L514.68 432.285C514.681 430.216 514.587 428.106 514.797 426.046C516.182 412.418 528.332 401.681 541.938 401.691C545.653 401.694 549.236 402.414 552.674 403.835C566.083 409.38 573.439 425.767 567.73 439.31C563.214 450.025 553.285 456.868 541.676 456.875C537.304 456.877 533.132 455.863 529.258 453.778C528.947 453.611 527.509 452.905 527.316 452.694L527.23 486.338C527.23 487.457 527.316 488.659 527.189 489.767C526.867 492.585 524.821 494.655 522.019 495.104C521.36 495.171 520.665 495.186 520.016 495.034L519.906 495.006C518.064 494.562 516.802 493.017 515.35 491.91C502.344 481.995 486.265 477.363 470.172 475.77L465.217 475.403C464.644 475.368 464.073 475.287 463.5 475.273L460.44 475.26C457.473 475.255 454.593 474.203 453.803 470.95L453.786 470.875C453.639 470.273 453.693 469.641 453.696 469.025L453.737 426.649C454.264 415.595 462.088 405.953 472.556 402.717C487.987 397.947 504.598 409.271 505.849 425.467C505.988 427.264 505.883 429.143 505.883 430.946L505.833 455.666C505.42 455.387 504.837 455.275 504.364 455.079C501.095 453.717 497.13 452.047 493.645 451.296L493.592 429.836C493.599 428.64 493.667 427.405 493.5 426.219C492.569 419.591 486.658 414.378 479.993 414.362C473.204 414.346 467.214 419.518 466.298 426.262C466.149 427.356 466.189 428.467 466.187 429.568L466.184 434.184ZM542.715 444.293C549.733 443.736 555.936 438.402 556.916 431.328C558.199 422.069 550.38 413.765 541.11 414.383C536.874 414.84 533.065 416.545 530.343 419.905C522.516 429.562 529.332 444.293 541.486 444.31C541.882 444.31 542.324 444.341 542.715 444.293Z"/>
</svg>
